# xmcd
#
# Track frame offsets:
#	150
#	23329
#	50154
#	77105
#	98810
#	123130
#	141517
#	165372
#	190037
#	235480
#	271372
#	302413
#
# Disc length: 4457 seconds
#
# Revision: 0
# Processed by: cddbd v1.5.2PL0 Copyright (c) Steve Scherf et al.
# Submitted via: EZCDAudioConverter 4.0.4.1
#
DISCID=9511670c
DTITLE=Beverly Trotman - Gospel for Life
DYEAR=2009
DGENRE=Gospel
TTITLE0=Tears in Heaven
TTITLE1=Down by the riverside
TTITLE2=Say the name
TTITLE3=Amazing grace
TTITLE4=We shall overcome
TTITLE5=Anything
TTITLE6=Go tell it on the mountain
TTITLE7=Damien
TTITLE8=Voice of hope
TTITLE9=Holy is the name
TTITLE10=I'll fly away
TTITLE11=Total praise
EXTD=
EXTT0=
EXTT1=
EXTT2=
EXTT3=
EXTT4=
EXTT5=
EXTT6=
EXTT7=
EXTT8=
EXTT9=
EXTT10=
EXTT11=
PLAYORDER=
